<?xml version="1.0" encoding="utf-8"?>
<!-- Generator: Adobe Illustrator 25.4.1, SVG Export Plug-In . SVG Version: 6.00 Build 0)  -->
<svg version="1.1" id="Capa_1" xmlns="http://www.w3.org/2000/svg" xmlns:xlink="http://www.w3.org/1999/xlink" x="0px" y="0px"
	 viewBox="0 0 261 45" style="enable-background:new 0 0 261 45;" xml:space="preserve">
<style type="text/css">
	.st0{fill:#020203;}
</style>
<g>
	<path class="st0" d="M62.5,21.2c3.4,1.5,4.9,3.2,4.9,6c0,2.8-2.2,5.1-5.6,5.1c-3.2,0-4.5-1.6-5.2-1.6c-0.5,0-0.6,0.3-0.6,0.9v0.6
		h-0.5L53.8,23h0.5c1.3,4.2,3.2,8.5,7.4,8.5c3,0,4.3-1.8,4.3-3.9c0-2.4-1.1-3.6-4.2-4.9l-2.1-0.9c-2.8-1.2-4.1-2.8-4.1-4.9
		c0-2.6,2.1-4.3,4.9-4.3c2.1,0,3.3,1,3.9,1c0.3,0,0.5-0.1,0.5-0.5v-0.6h0.5l1.8,6.2h-0.5c-1.7-3.8-3.6-5.5-6.1-5.5
		c-2.3,0.1-3.6,1.5-3.6,3.1c0,1.8,0.9,2.8,3.6,3.9L62.5,21.2z M69.9,13.1h11.9l1.8,5.9h-0.6c-1.7-4-2.6-5.3-5.1-5.3h-1.3v16.5
		c0,1,0.3,1.5,1.7,1.5l0.6,0.1v0.5h-6.5v-0.5l0.6-0.1c1.5-0.1,1.8-0.5,1.8-1.5V13.6h-1.3c-2.5,0-3.3,1.3-5.1,5.3h-0.5L69.9,13.1z
		 M94.6,21.7L94.6,21.7L94.6,21.7c3.5,0,4.4,2.2,4.4,4.2v6.2h-1.8v-6.9c0-1.8-0.8-3.1-3.2-3.1h-5.3v8c0,0.9,0.2,1.5,1.7,1.5l0.5,0.1
		v0.6h-6.2v-0.5l0.5-0.1c1.5-0.1,1.7-0.6,1.7-1.5V15.1c0-0.9-0.2-1.4-1.7-1.5l-0.5-0.1V13H93c3.5,0,6.2,0.9,6.2,4.5
		C99.1,21,96.2,21.6,94.6,21.7z M92.6,21.5c3.1,0,4.4-1,4.4-3.9c0-2.9-1.3-4-4.4-4h-4.1v7.8C88.5,21.5,92.6,21.5,92.6,21.5z
		 M115.1,29.7c0.6,1.7,1.1,1.8,2.2,1.9v0.5h-5.9v-0.5l0.5-0.1c1.6-0.1,1.7-0.5,1.2-1.9l-1.5-4.5h-6.3l-1.2,3.5
		c-0.7,2.1-0.5,2.8,1.3,2.9l0.5,0.1v0.5h-5.6v-0.5l0.3-0.1c1.6-0.1,2-0.8,2.8-2.9l5.5-15.7h0.6L115.1,29.7z M105.4,24.5h6l-2.9-8.8
		L105.4,24.5z M124.2,13.1c5.3,0,8.8,2.8,8.8,9.6s-3.5,9.5-8.8,9.5H118v-0.5l0.5-0.1c1.5-0.1,1.7-0.6,1.7-1.5V15.1
		c0-0.9-0.2-1.4-1.7-1.5l-0.5-0.1V13L124.2,13.1L124.2,13.1z M131.1,22.6c0-6.2-1.7-8.9-7-8.9H122v16.5c0,1,0.5,1.5,2.1,1.5
		C129.3,31.5,131.1,28.7,131.1,22.6z M135.8,13.6v-0.5h6.2v0.5l-0.5,0.1c-1.5,0.1-1.7,0.6-1.7,1.5v15c0,0.9,0.3,1.5,1.7,1.5l0.5,0.1
		v0.5h-6.2v-0.5l0.5-0.1c1.5-0.1,1.7-0.6,1.7-1.5V15.1c0-0.9-0.3-1.4-1.7-1.5L135.8,13.6L135.8,13.6z M159.4,13.6
		c-1.7,0.1-2.2,0.8-2.8,2.9l-5.4,15.6h-0.6l-5.6-16.7c-0.6-1.8-1.2-1.8-2.2-1.9V13h5.9v0.5l-0.6,0.1c-1.5,0.1-1.6,0.5-1.2,1.9
		l4.5,13.9l4.3-12.9c0.7-2.1,0.6-2.8-1.2-2.9l-0.5-0.1V13h5.6v0.5L159.4,13.6L159.4,13.6z M170.8,29.7c0.6,1.7,1.1,1.8,2.2,1.9v0.5
		h-5.9v-0.5l0.5-0.1c1.6-0.1,1.7-0.5,1.2-1.9l-1.5-4.5h-6.3l-1.2,3.5c-0.7,2.1-0.5,2.8,1.3,2.9l0.5,0.1v0.5H156v-0.5l0.3-0.1
		c1.6-0.1,2-0.8,2.8-2.9l5.5-15.7h0.6L170.8,29.7z M161.1,24.5h6l-2.9-8.8L161.1,24.5z M183.6,21.7L183.6,21.7L183.6,21.7
		c3.5,0,4.4,2.2,4.4,4.2v6.2h-1.8v-6.9c0-1.8-0.8-3.1-3.2-3.1h-5.3v8c0,0.9,0.2,1.5,1.7,1.5l0.5,0.1v0.6h-6.2v-0.5l0.5-0.1
		c1.5-0.1,1.7-0.6,1.7-1.5V15.1c0-0.9-0.2-1.4-1.7-1.5l-0.5-0.1V13h8.3c3.5,0,6.2,0.9,6.2,4.5C188.1,21,185.3,21.6,183.6,21.7z
		 M181.8,21.5c3.1,0,4.4-1,4.4-3.9c0-2.9-1.3-4-4.4-4h-4.1v7.8C177.7,21.5,181.8,21.5,181.8,21.5z M191.9,13.6v-0.5h6.2v0.5
		l-0.5,0.1c-1.5,0.1-1.7,0.6-1.7,1.5v15c0,0.9,0.3,1.5,1.7,1.5l0.5,0.1v0.5h-6.2v-0.5l0.5-0.1c1.5-0.1,1.7-0.6,1.7-1.5V15.1
		c0-0.9-0.3-1.4-1.7-1.5L191.9,13.6L191.9,13.6z M215.1,30c0,0.9,0.3,1.5,1.7,1.5l0.5,0.1v0.5h-4v-3.6l-1.7,1.5
		c-1.6,1.3-3.4,2.4-5.3,2.4c-2.4,0-3.6-1.2-3.6-4.3v-13c0-0.9-0.2-1.4-1.7-1.5l-0.5-0.1V13h4v15.3c0,2,0.5,3.1,2.4,3.1
		c1.2,0,2.8-0.7,4.3-2l2-1.6V15.1c0-0.9-0.3-1.4-1.7-1.5l-0.5-0.1v-0.5h4L215.1,30L215.1,30z M227.4,21.2c3.4,1.5,4.9,3.2,4.9,6
		c0,2.8-2.2,5.1-5.6,5.1c-3.2,0-4.5-1.6-5.2-1.6c-0.5,0-0.6,0.3-0.6,0.9l-0.1,0.6h-0.4l-1.6-9.2h0.5c1.3,4.2,3.2,8.5,7.4,8.5
		c3,0,4.3-1.8,4.3-3.9c0-2.4-1.1-3.6-4.2-4.9l-2.1-0.9c-2.8-1.2-4.1-2.8-4.1-4.9c0-2.6,2.1-4.3,4.9-4.3c2.1,0,3.3,1,3.9,1
		c0.3,0,0.5-0.1,0.5-0.5v-0.5h0.5l1.7,6.2h-0.5c-1.7-3.8-3.6-5.5-6.1-5.5c-2.3,0.1-3.6,1.5-3.6,3.1c0,1.8,0.9,2.8,3.6,3.9
		L227.4,21.2z"/>
	<g>
		<path class="st0" d="M40.4,13.7c0.1-0.4,0.1-0.7,0.1-1.2c0-2.9-1.5-5.2-2.8-6.2c-0.3-0.2-0.6-0.2-0.7-0.1
			c-0.2,0.1-0.3,0.3-0.3,0.6v6.1c-4.5,0.3-7.9,4.4-7.9,9.7s3.4,9.5,7.9,9.7v6.6h0.8v-6.6c4.5-0.3,7.9-4.4,7.9-9.7
			C45.5,18.6,43.5,15.1,40.4,13.7z M33.3,24.9c0,1.9,1.4,3.6,3.3,3.8v2.8c-4.3-0.3-7-4.7-7-8.8s2.6-8.5,7-8.8v5.1l-0.7,0.8
			C33.9,22,33.3,23,33.3,24.9z M36.7,20.1v7.6c-1.5-0.2-2.5-1.4-2.5-2.8c0-1.4,0.2-2.1,2.4-4.6L36.7,20.1z M37.6,28.7
			c1.9-0.2,3.3-1.7,3.3-3.8c0-1.1-0.5-2-1.2-2.8l-0.1-0.1L39,22.5l0.1,0.1c0.6,0.7,0.9,1.4,0.9,2.2c0,1.5-1,2.8-2.5,2.8V19l0.8-0.9
			c0.7-0.8,1.6-1.9,1.9-3.6c2.6,1.5,4.2,4.6,4.2,8c0,4.1-2.7,8.5-7,8.8L37.6,28.7L37.6,28.7L37.6,28.7z M37.6,12.8V7.2
			c1.3,1.1,2.1,3.1,2.1,5.2c0,0.3,0,0.6-0.1,0.8C39,13.1,38.3,12.9,37.6,12.8z M37.6,17.8v-4c0.7,0.1,1.3,0.2,1.9,0.5
			c-0.3,1.2-0.8,2.2-1.7,3.3L37.6,17.8z"/>
	</g>
</g>
</svg>
